<svg xmlns="http://www.w3.org/2000/svg" version="1.1" xmlns:xlink="http://www.w3.org/1999/xlink" xmlns:svgjs="http://svgjs.com/svgjs" width="1920" height="1080" preserveAspectRatio="none" viewBox="0 0 1920 1080"><g mask="url(&quot;#SvgjsMask1018&quot;)" fill="none"><rect width="1920" height="1080" x="0" y="0" fill="url(#SvgjsLinearGradient1019)"></rect><path d="M120.33 321.01L185.29 358.51L185.29 433.51L120.33 471.01L55.38 433.51L55.38 358.51zM55.38 433.51L120.33 471.01L120.33 546.01L55.38 583.51L-9.57 546.01L-9.57 471.01zM250.24 96.01L315.19 133.51L315.19 208.51L250.24 246.01L185.29 208.51L185.29 133.51zM185.29 208.51L250.24 246.01L250.24 321.01L185.29 358.51L120.33 321.01L120.33 246.01zM185.29 658.51L250.24 696.01L250.24 771.01L185.29 808.51L120.33 771.01L120.33 696.01zM510.06 546.01L575.01 583.51L575.01 658.51L510.06 696.01L445.1 658.51L445.1 583.51zM445.1 658.51L510.06 696.01L510.06 771.01L445.1 808.51L380.15 771.01L380.15 696.01zM510.06 996.01L575.01 1033.51L575.01 1108.51L510.06 1146.01L445.1 1108.51L445.1 1033.51zM575.01 -16.49L639.96 21.01L639.96 96.01L575.01 133.51L510.06 96.01L510.06 21.01zM639.96 96.01L704.92 133.51L704.92 208.51L639.96 246.01L575.01 208.51L575.01 133.51zM639.96 321.01L704.92 358.51L704.92 433.51L639.96 471.01L575.01 433.51L575.01 358.51zM575.01 658.51L639.96 696.01L639.96 771.01L575.01 808.51L510.06 771.01L510.06 696.01zM639.96 996.01L704.92 1033.51L704.92 1108.51L639.96 1146.01L575.01 1108.51L575.01 1033.51zM704.92 433.51L769.87 471.01L769.87 546.01L704.92 583.51L639.96 546.01L639.96 471.01zM1029.69 546.01L1094.64 583.51L1094.64 658.51L1029.69 696.01L964.73 658.51L964.73 583.51zM964.73 658.51L1029.69 696.01L1029.69 771.01L964.73 808.51L899.78 771.01L899.78 696.01zM1029.69 996.01L1094.64 1033.51L1094.64 1108.51L1029.69 1146.01L964.73 1108.51L964.73 1033.51zM1094.64 208.51L1159.59 246.01L1159.59 321.01L1094.64 358.51L1029.69 321.01L1029.69 246.01zM1094.64 433.51L1159.59 471.01L1159.59 546.01L1094.64 583.51L1029.69 546.01L1029.69 471.01zM1094.64 658.51L1159.59 696.01L1159.59 771.01L1094.64 808.51L1029.69 771.01L1029.69 696.01zM1094.64 883.51L1159.59 921.01L1159.59 996.01L1094.64 1033.51L1029.69 996.01L1029.69 921.01zM1224.55 433.51L1289.5 471.01L1289.5 546.01L1224.55 583.51L1159.59 546.01L1159.59 471.01zM1289.5 996.01L1354.45 1033.51L1354.45 1108.51L1289.5 1146.01L1224.55 1108.51L1224.55 1033.51zM1419.41 96.01L1484.36 133.51L1484.36 208.51L1419.41 246.01L1354.46 208.51L1354.46 133.51zM1354.46 208.51L1419.41 246.01L1419.41 321.01L1354.46 358.51L1289.5 321.01L1289.5 246.01zM1354.46 658.51L1419.41 696.01L1419.41 771.01L1354.46 808.51L1289.5 771.01L1289.5 696.01zM1484.36 -16.49L1549.32 21.01L1549.32 96.01L1484.36 133.51L1419.41 96.01L1419.41 21.01zM1484.36 208.51L1549.32 246.01L1549.32 321.01L1484.36 358.51L1419.41 321.01L1419.41 246.01zM1549.32 546.01L1614.27 583.51L1614.27 658.51L1549.32 696.01L1484.36 658.51L1484.36 583.51zM1484.36 883.51L1549.32 921.01L1549.32 996.01L1484.36 1033.51L1419.41 996.01L1419.41 921.01zM1484.36 1108.51L1549.32 1146.01L1549.32 1221.01L1484.36 1258.51L1419.41 1221.01L1419.41 1146.01zM1679.22 96.01L1744.18 133.51L1744.18 208.51L1679.22 246.01L1614.27 208.51L1614.27 133.51zM1614.27 208.51L1679.22 246.01L1679.22 321.01L1614.27 358.51L1549.32 321.01L1549.32 246.01zM1679.22 321.01L1744.18 358.51L1744.18 433.51L1679.22 471.01L1614.27 433.51L1614.27 358.51zM1679.22 546.01L1744.18 583.51L1744.18 658.51L1679.22 696.01L1614.27 658.51L1614.27 583.51zM1614.27 658.51L1679.22 696.01L1679.22 771.01L1614.27 808.51L1549.32 771.01L1549.32 696.01zM1679.22 996.01L1744.18 1033.51L1744.18 1108.51L1679.22 1146.01L1614.27 1108.51L1614.27 1033.51zM1809.13 321.01L1874.08 358.51L1874.08 433.51L1809.13 471.01L1744.18 433.51L1744.18 358.51zM1744.18 658.51L1809.13 696.01L1809.13 771.01L1744.18 808.51L1679.22 771.01L1679.22 696.01zM1809.13 771.01L1874.08 808.51L1874.08 883.51L1809.13 921.01L1744.18 883.51L1744.18 808.51zM1874.09 1108.51L1939.04 1146.01L1939.04 1221.01L1874.09 1258.51L1809.13 1221.01L1809.13 1146.01z" stroke="#03305d" stroke-width="2"></path><path d="M112.83 321.01 a7.5 7.5 0 1 0 15 0 a7.5 7.5 0 1 0 -15 0zM177.79 358.51 a7.5 7.5 0 1 0 15 0 a7.5 7.5 0 1 0 -15 0zM177.79 433.51 a7.5 7.5 0 1 0 15 0 a7.5 7.5 0 1 0 -15 0zM112.83 471.01 a7.5 7.5 0 1 0 15 0 a7.5 7.5 0 1 0 -15 0zM47.88 433.51 a7.5 7.5 0 1 0 15 0 a7.5 7.5 0 1 0 -15 0zM47.88 358.51 a7.5 7.5 0 1 0 15 0 a7.5 7.5 0 1 0 -15 0zM112.83 546.01 a7.5 7.5 0 1 0 15 0 a7.5 7.5 0 1 0 -15 0zM47.88 583.51 a7.5 7.5 0 1 0 15 0 a7.5 7.5 0 1 0 -15 0zM-17.07 546.01 a7.5 7.5 0 1 0 15 0 a7.5 7.5 0 1 0 -15 0zM-17.07 471.01 a7.5 7.5 0 1 0 15 0 a7.5 7.5 0 1 0 -15 0zM242.74 96.01 a7.5 7.5 0 1 0 15 0 a7.5 7.5 0 1 0 -15 0zM307.69 133.51 a7.5 7.5 0 1 0 15 0 a7.5 7.5 0 1 0 -15 0zM307.69 208.51 a7.5 7.5 0 1 0 15 0 a7.5 7.5 0 1 0 -15 0zM242.74 246.01 a7.5 7.5 0 1 0 15 0 a7.5 7.5 0 1 0 -15 0zM177.79 208.51 a7.5 7.5 0 1 0 15 0 a7.5 7.5 0 1 0 -15 0zM177.79 133.51 a7.5 7.5 0 1 0 15 0 a7.5 7.5 0 1 0 -15 0zM242.74 321.01 a7.5 7.5 0 1 0 15 0 a7.5 7.5 0 1 0 -15 0zM112.83 246.01 a7.5 7.5 0 1 0 15 0 a7.5 7.5 0 1 0 -15 0zM177.79 658.51 a7.5 7.5 0 1 0 15 0 a7.5 7.5 0 1 0 -15 0zM242.74 696.01 a7.5 7.5 0 1 0 15 0 a7.5 7.5 0 1 0 -15 0zM242.74 771.01 a7.5 7.5 0 1 0 15 0 a7.5 7.5 0 1 0 -15 0zM177.79 808.51 a7.5 7.5 0 1 0 15 0 a7.5 7.5 0 1 0 -15 0zM112.83 771.01 a7.5 7.5 0 1 0 15 0 a7.5 7.5 0 1 0 -15 0zM112.83 696.01 a7.5 7.5 0 1 0 15 0 a7.5 7.5 0 1 0 -15 0zM502.56 546.01 a7.5 7.5 0 1 0 15 0 a7.5 7.5 0 1 0 -15 0zM567.51 583.51 a7.5 7.5 0 1 0 15 0 a7.5 7.5 0 1 0 -15 0zM567.51 658.51 a7.5 7.5 0 1 0 15 0 a7.5 7.5 0 1 0 -15 0zM502.56 696.01 a7.5 7.5 0 1 0 15 0 a7.5 7.5 0 1 0 -15 0zM437.6 658.51 a7.5 7.5 0 1 0 15 0 a7.5 7.5 0 1 0 -15 0zM437.6 583.51 a7.5 7.5 0 1 0 15 0 a7.5 7.5 0 1 0 -15 0zM502.56 771.01 a7.5 7.5 0 1 0 15 0 a7.5 7.5 0 1 0 -15 0zM437.6 808.51 a7.5 7.5 0 1 0 15 0 a7.5 7.5 0 1 0 -15 0zM372.65 771.01 a7.5 7.5 0 1 0 15 0 a7.5 7.5 0 1 0 -15 0zM372.65 696.01 a7.5 7.5 0 1 0 15 0 a7.5 7.5 0 1 0 -15 0zM502.56 996.01 a7.5 7.5 0 1 0 15 0 a7.5 7.5 0 1 0 -15 0zM567.51 1033.51 a7.5 7.5 0 1 0 15 0 a7.5 7.5 0 1 0 -15 0zM567.51 1108.51 a7.5 7.5 0 1 0 15 0 a7.5 7.5 0 1 0 -15 0zM502.56 1146.01 a7.5 7.5 0 1 0 15 0 a7.5 7.5 0 1 0 -15 0zM437.6 1108.51 a7.5 7.5 0 1 0 15 0 a7.5 7.5 0 1 0 -15 0zM437.6 1033.51 a7.5 7.5 0 1 0 15 0 a7.5 7.5 0 1 0 -15 0zM567.51 -16.49 a7.5 7.5 0 1 0 15 0 a7.5 7.5 0 1 0 -15 0zM632.46 21.01 a7.5 7.5 0 1 0 15 0 a7.5 7.5 0 1 0 -15 0zM632.46 96.01 a7.5 7.5 0 1 0 15 0 a7.5 7.5 0 1 0 -15 0zM567.51 133.51 a7.5 7.5 0 1 0 15 0 a7.5 7.5 0 1 0 -15 0zM502.56 96.01 a7.5 7.5 0 1 0 15 0 a7.5 7.5 0 1 0 -15 0zM502.56 21.01 a7.5 7.5 0 1 0 15 0 a7.5 7.5 0 1 0 -15 0zM697.42 133.51 a7.5 7.5 0 1 0 15 0 a7.5 7.5 0 1 0 -15 0zM697.42 208.51 a7.5 7.5 0 1 0 15 0 a7.5 7.5 0 1 0 -15 0zM632.46 246.01 a7.5 7.5 0 1 0 15 0 a7.5 7.5 0 1 0 -15 0zM567.51 208.51 a7.5 7.5 0 1 0 15 0 a7.5 7.5 0 1 0 -15 0zM632.46 321.01 a7.5 7.5 0 1 0 15 0 a7.5 7.5 0 1 0 -15 0zM697.42 358.51 a7.5 7.5 0 1 0 15 0 a7.5 7.5 0 1 0 -15 0zM697.42 433.51 a7.5 7.5 0 1 0 15 0 a7.5 7.5 0 1 0 -15 0zM632.46 471.01 a7.5 7.5 0 1 0 15 0 a7.5 7.5 0 1 0 -15 0zM567.51 433.51 a7.5 7.5 0 1 0 15 0 a7.5 7.5 0 1 0 -15 0zM567.51 358.51 a7.5 7.5 0 1 0 15 0 a7.5 7.5 0 1 0 -15 0zM632.46 696.01 a7.5 7.5 0 1 0 15 0 a7.5 7.5 0 1 0 -15 0zM632.46 771.01 a7.5 7.5 0 1 0 15 0 a7.5 7.5 0 1 0 -15 0zM567.51 808.51 a7.5 7.5 0 1 0 15 0 a7.5 7.5 0 1 0 -15 0zM632.46 996.01 a7.5 7.5 0 1 0 15 0 a7.5 7.5 0 1 0 -15 0zM697.42 1033.51 a7.5 7.5 0 1 0 15 0 a7.5 7.5 0 1 0 -15 0zM697.42 1108.51 a7.5 7.5 0 1 0 15 0 a7.5 7.5 0 1 0 -15 0zM632.46 1146.01 a7.5 7.5 0 1 0 15 0 a7.5 7.5 0 1 0 -15 0zM762.37 471.01 a7.5 7.5 0 1 0 15 0 a7.5 7.5 0 1 0 -15 0zM762.37 546.01 a7.5 7.5 0 1 0 15 0 a7.5 7.5 0 1 0 -15 0zM697.42 583.51 a7.5 7.5 0 1 0 15 0 a7.5 7.5 0 1 0 -15 0zM632.46 546.01 a7.5 7.5 0 1 0 15 0 a7.5 7.5 0 1 0 -15 0zM1022.19 546.01 a7.5 7.5 0 1 0 15 0 a7.5 7.5 0 1 0 -15 0zM1087.14 583.51 a7.5 7.5 0 1 0 15 0 a7.5 7.5 0 1 0 -15 0zM1087.14 658.51 a7.5 7.5 0 1 0 15 0 a7.5 7.5 0 1 0 -15 0zM1022.19 696.01 a7.5 7.5 0 1 0 15 0 a7.5 7.5 0 1 0 -15 0zM957.23 658.51 a7.5 7.5 0 1 0 15 0 a7.5 7.5 0 1 0 -15 0zM957.23 583.51 a7.5 7.5 0 1 0 15 0 a7.5 7.5 0 1 0 -15 0zM1022.19 771.01 a7.5 7.5 0 1 0 15 0 a7.5 7.5 0 1 0 -15 0zM957.23 808.51 a7.5 7.5 0 1 0 15 0 a7.5 7.5 0 1 0 -15 0zM892.28 771.01 a7.5 7.5 0 1 0 15 0 a7.5 7.5 0 1 0 -15 0zM892.28 696.01 a7.5 7.5 0 1 0 15 0 a7.5 7.5 0 1 0 -15 0zM1022.19 996.01 a7.5 7.5 0 1 0 15 0 a7.5 7.5 0 1 0 -15 0zM1087.14 1033.51 a7.5 7.5 0 1 0 15 0 a7.5 7.5 0 1 0 -15 0zM1087.14 1108.51 a7.5 7.5 0 1 0 15 0 a7.5 7.5 0 1 0 -15 0zM1022.19 1146.01 a7.5 7.5 0 1 0 15 0 a7.5 7.5 0 1 0 -15 0zM957.23 1108.51 a7.5 7.5 0 1 0 15 0 a7.5 7.5 0 1 0 -15 0zM957.23 1033.51 a7.5 7.5 0 1 0 15 0 a7.5 7.5 0 1 0 -15 0zM1087.14 208.51 a7.5 7.5 0 1 0 15 0 a7.5 7.5 0 1 0 -15 0zM1152.09 246.01 a7.5 7.5 0 1 0 15 0 a7.5 7.5 0 1 0 -15 0zM1152.09 321.01 a7.5 7.5 0 1 0 15 0 a7.5 7.5 0 1 0 -15 0zM1087.14 358.51 a7.5 7.5 0 1 0 15 0 a7.5 7.5 0 1 0 -15 0zM1022.19 321.01 a7.5 7.5 0 1 0 15 0 a7.5 7.5 0 1 0 -15 0zM1022.19 246.01 a7.5 7.5 0 1 0 15 0 a7.5 7.5 0 1 0 -15 0zM1087.14 433.51 a7.5 7.5 0 1 0 15 0 a7.5 7.5 0 1 0 -15 0zM1152.09 471.01 a7.5 7.5 0 1 0 15 0 a7.5 7.5 0 1 0 -15 0zM1152.09 546.01 a7.5 7.5 0 1 0 15 0 a7.5 7.5 0 1 0 -15 0zM1022.19 471.01 a7.5 7.5 0 1 0 15 0 a7.5 7.5 0 1 0 -15 0zM1152.09 696.01 a7.5 7.5 0 1 0 15 0 a7.5 7.5 0 1 0 -15 0zM1152.09 771.01 a7.5 7.5 0 1 0 15 0 a7.5 7.5 0 1 0 -15 0zM1087.14 808.51 a7.5 7.5 0 1 0 15 0 a7.5 7.5 0 1 0 -15 0zM1087.14 883.51 a7.5 7.5 0 1 0 15 0 a7.5 7.5 0 1 0 -15 0zM1152.09 921.01 a7.5 7.5 0 1 0 15 0 a7.5 7.5 0 1 0 -15 0zM1152.09 996.01 a7.5 7.5 0 1 0 15 0 a7.5 7.5 0 1 0 -15 0zM1022.19 921.01 a7.5 7.5 0 1 0 15 0 a7.5 7.5 0 1 0 -15 0zM1217.05 433.51 a7.5 7.5 0 1 0 15 0 a7.5 7.5 0 1 0 -15 0zM1282 471.01 a7.5 7.5 0 1 0 15 0 a7.5 7.5 0 1 0 -15 0zM1282 546.01 a7.5 7.5 0 1 0 15 0 a7.5 7.5 0 1 0 -15 0zM1217.05 583.51 a7.5 7.5 0 1 0 15 0 a7.5 7.5 0 1 0 -15 0zM1282 996.01 a7.5 7.5 0 1 0 15 0 a7.5 7.5 0 1 0 -15 0zM1346.95 1033.51 a7.5 7.5 0 1 0 15 0 a7.5 7.5 0 1 0 -15 0zM1346.95 1108.51 a7.5 7.5 0 1 0 15 0 a7.5 7.5 0 1 0 -15 0zM1282 1146.01 a7.5 7.5 0 1 0 15 0 a7.5 7.5 0 1 0 -15 0zM1217.05 1108.51 a7.5 7.5 0 1 0 15 0 a7.5 7.5 0 1 0 -15 0zM1217.05 1033.51 a7.5 7.5 0 1 0 15 0 a7.5 7.5 0 1 0 -15 0zM1411.91 96.01 a7.5 7.5 0 1 0 15 0 a7.5 7.5 0 1 0 -15 0zM1476.86 133.51 a7.5 7.5 0 1 0 15 0 a7.5 7.5 0 1 0 -15 0zM1476.86 208.51 a7.5 7.5 0 1 0 15 0 a7.5 7.5 0 1 0 -15 0zM1411.91 246.01 a7.5 7.5 0 1 0 15 0 a7.5 7.5 0 1 0 -15 0zM1346.96 208.51 a7.5 7.5 0 1 0 15 0 a7.5 7.5 0 1 0 -15 0zM1346.96 133.51 a7.5 7.5 0 1 0 15 0 a7.5 7.5 0 1 0 -15 0zM1411.91 321.01 a7.5 7.5 0 1 0 15 0 a7.5 7.5 0 1 0 -15 0zM1346.96 358.51 a7.5 7.5 0 1 0 15 0 a7.5 7.5 0 1 0 -15 0zM1282 321.01 a7.5 7.5 0 1 0 15 0 a7.5 7.5 0 1 0 -15 0zM1282 246.01 a7.5 7.5 0 1 0 15 0 a7.5 7.5 0 1 0 -15 0zM1346.96 658.51 a7.5 7.5 0 1 0 15 0 a7.5 7.5 0 1 0 -15 0zM1411.91 696.01 a7.5 7.5 0 1 0 15 0 a7.5 7.5 0 1 0 -15 0zM1411.91 771.01 a7.5 7.5 0 1 0 15 0 a7.5 7.5 0 1 0 -15 0zM1346.96 808.51 a7.5 7.5 0 1 0 15 0 a7.5 7.5 0 1 0 -15 0zM1282 771.01 a7.5 7.5 0 1 0 15 0 a7.5 7.5 0 1 0 -15 0zM1282 696.01 a7.5 7.5 0 1 0 15 0 a7.5 7.5 0 1 0 -15 0zM1476.86 -16.49 a7.5 7.5 0 1 0 15 0 a7.5 7.5 0 1 0 -15 0zM1541.82 21.01 a7.5 7.5 0 1 0 15 0 a7.5 7.5 0 1 0 -15 0zM1541.82 96.01 a7.5 7.5 0 1 0 15 0 a7.5 7.5 0 1 0 -15 0zM1411.91 21.01 a7.5 7.5 0 1 0 15 0 a7.5 7.5 0 1 0 -15 0zM1541.82 246.01 a7.5 7.5 0 1 0 15 0 a7.5 7.5 0 1 0 -15 0zM1541.82 321.01 a7.5 7.5 0 1 0 15 0 a7.5 7.5 0 1 0 -15 0zM1476.86 358.51 a7.5 7.5 0 1 0 15 0 a7.5 7.5 0 1 0 -15 0zM1541.82 546.01 a7.5 7.5 0 1 0 15 0 a7.5 7.5 0 1 0 -15 0zM1606.77 583.51 a7.5 7.5 0 1 0 15 0 a7.5 7.5 0 1 0 -15 0zM1606.77 658.51 a7.5 7.5 0 1 0 15 0 a7.5 7.5 0 1 0 -15 0zM1541.82 696.01 a7.5 7.5 0 1 0 15 0 a7.5 7.5 0 1 0 -15 0zM1476.86 658.51 a7.5 7.5 0 1 0 15 0 a7.5 7.5 0 1 0 -15 0zM1476.86 583.51 a7.5 7.5 0 1 0 15 0 a7.5 7.5 0 1 0 -15 0zM1476.86 883.51 a7.5 7.5 0 1 0 15 0 a7.5 7.5 0 1 0 -15 0zM1541.82 921.01 a7.5 7.5 0 1 0 15 0 a7.5 7.5 0 1 0 -15 0zM1541.82 996.01 a7.5 7.5 0 1 0 15 0 a7.5 7.5 0 1 0 -15 0zM1476.86 1033.51 a7.5 7.5 0 1 0 15 0 a7.5 7.5 0 1 0 -15 0zM1411.91 996.01 a7.5 7.5 0 1 0 15 0 a7.5 7.5 0 1 0 -15 0zM1411.91 921.01 a7.5 7.5 0 1 0 15 0 a7.5 7.5 0 1 0 -15 0zM1476.86 1108.51 a7.5 7.5 0 1 0 15 0 a7.5 7.5 0 1 0 -15 0zM1541.82 1146.01 a7.5 7.5 0 1 0 15 0 a7.5 7.5 0 1 0 -15 0zM1541.82 1221.01 a7.5 7.5 0 1 0 15 0 a7.5 7.5 0 1 0 -15 0zM1476.86 1258.51 a7.5 7.5 0 1 0 15 0 a7.5 7.5 0 1 0 -15 0zM1411.91 1221.01 a7.5 7.5 0 1 0 15 0 a7.5 7.5 0 1 0 -15 0zM1411.91 1146.01 a7.5 7.5 0 1 0 15 0 a7.5 7.5 0 1 0 -15 0zM1671.72 96.01 a7.5 7.5 0 1 0 15 0 a7.5 7.5 0 1 0 -15 0zM1736.68 133.51 a7.5 7.5 0 1 0 15 0 a7.5 7.5 0 1 0 -15 0zM1736.68 208.51 a7.5 7.5 0 1 0 15 0 a7.5 7.5 0 1 0 -15 0zM1671.72 246.01 a7.5 7.5 0 1 0 15 0 a7.5 7.5 0 1 0 -15 0zM1606.77 208.51 a7.5 7.5 0 1 0 15 0 a7.5 7.5 0 1 0 -15 0zM1606.77 133.51 a7.5 7.5 0 1 0 15 0 a7.5 7.5 0 1 0 -15 0zM1671.72 321.01 a7.5 7.5 0 1 0 15 0 a7.5 7.5 0 1 0 -15 0zM1606.77 358.51 a7.5 7.5 0 1 0 15 0 a7.5 7.5 0 1 0 -15 0zM1736.68 358.51 a7.5 7.5 0 1 0 15 0 a7.5 7.5 0 1 0 -15 0zM1736.68 433.51 a7.5 7.5 0 1 0 15 0 a7.5 7.5 0 1 0 -15 0zM1671.72 471.01 a7.5 7.5 0 1 0 15 0 a7.5 7.5 0 1 0 -15 0zM1606.77 433.51 a7.5 7.5 0 1 0 15 0 a7.5 7.5 0 1 0 -15 0zM1671.72 546.01 a7.5 7.5 0 1 0 15 0 a7.5 7.5 0 1 0 -15 0zM1736.68 583.51 a7.5 7.5 0 1 0 15 0 a7.5 7.5 0 1 0 -15 0zM1736.68 658.51 a7.5 7.5 0 1 0 15 0 a7.5 7.5 0 1 0 -15 0zM1671.72 696.01 a7.5 7.5 0 1 0 15 0 a7.5 7.5 0 1 0 -15 0zM1671.72 771.01 a7.5 7.5 0 1 0 15 0 a7.5 7.5 0 1 0 -15 0zM1606.77 808.51 a7.5 7.5 0 1 0 15 0 a7.5 7.5 0 1 0 -15 0zM1541.82 771.01 a7.5 7.5 0 1 0 15 0 a7.5 7.5 0 1 0 -15 0zM1671.72 996.01 a7.5 7.5 0 1 0 15 0 a7.5 7.5 0 1 0 -15 0zM1736.68 1033.51 a7.5 7.5 0 1 0 15 0 a7.5 7.5 0 1 0 -15 0zM1736.68 1108.51 a7.5 7.5 0 1 0 15 0 a7.5 7.5 0 1 0 -15 0zM1671.72 1146.01 a7.5 7.5 0 1 0 15 0 a7.5 7.5 0 1 0 -15 0zM1606.77 1108.51 a7.5 7.5 0 1 0 15 0 a7.5 7.5 0 1 0 -15 0zM1606.77 1033.51 a7.5 7.5 0 1 0 15 0 a7.5 7.5 0 1 0 -15 0zM1801.63 321.01 a7.5 7.5 0 1 0 15 0 a7.5 7.5 0 1 0 -15 0zM1866.58 358.51 a7.5 7.5 0 1 0 15 0 a7.5 7.5 0 1 0 -15 0zM1866.58 433.51 a7.5 7.5 0 1 0 15 0 a7.5 7.5 0 1 0 -15 0zM1801.63 471.01 a7.5 7.5 0 1 0 15 0 a7.5 7.5 0 1 0 -15 0zM1801.63 696.01 a7.5 7.5 0 1 0 15 0 a7.5 7.5 0 1 0 -15 0zM1801.63 771.01 a7.5 7.5 0 1 0 15 0 a7.5 7.5 0 1 0 -15 0zM1736.68 808.51 a7.5 7.5 0 1 0 15 0 a7.5 7.5 0 1 0 -15 0zM1866.58 808.51 a7.5 7.5 0 1 0 15 0 a7.5 7.5 0 1 0 -15 0zM1866.58 883.51 a7.5 7.5 0 1 0 15 0 a7.5 7.5 0 1 0 -15 0zM1801.63 921.01 a7.5 7.5 0 1 0 15 0 a7.5 7.5 0 1 0 -15 0zM1736.68 883.51 a7.5 7.5 0 1 0 15 0 a7.5 7.5 0 1 0 -15 0zM1866.59 1108.51 a7.5 7.5 0 1 0 15 0 a7.5 7.5 0 1 0 -15 0zM1931.54 1146.01 a7.5 7.5 0 1 0 15 0 a7.5 7.5 0 1 0 -15 0zM1931.54 1221.01 a7.5 7.5 0 1 0 15 0 a7.5 7.5 0 1 0 -15 0zM1866.59 1258.51 a7.5 7.5 0 1 0 15 0 a7.5 7.5 0 1 0 -15 0zM1801.63 1221.01 a7.5 7.5 0 1 0 15 0 a7.5 7.5 0 1 0 -15 0zM1801.63 1146.01 a7.5 7.5 0 1 0 15 0 a7.5 7.5 0 1 0 -15 0z" fill="#03305d"></path><path d="M32.57 598.67L75.87 623.67L75.87 673.67L32.57 698.67L-10.73 673.67L-10.73 623.67zM32.57 748.67L75.87 773.67L75.87 823.67L32.57 848.67L-10.73 823.67L-10.73 773.67zM32.57 898.67L75.87 923.67L75.87 973.67L32.57 998.67L-10.73 973.67L-10.73 923.67zM75.87 973.67L119.18 998.67L119.18 1048.67L75.87 1073.67L32.57 1048.67L32.57 998.67zM119.18 -1.33L162.48 23.67L162.48 73.67L119.18 98.67L75.87 73.67L75.87 23.67zM162.48 523.67L205.78 548.67L205.78 598.67L162.48 623.67L119.18 598.67L119.18 548.67zM162.48 823.67L205.78 848.67L205.78 898.67L162.48 923.67L119.18 898.67L119.18 848.67zM205.78 148.67L249.08 173.67L249.08 223.67L205.78 248.67L162.48 223.67L162.48 173.67zM249.08 523.67L292.38 548.67L292.38 598.67L249.08 623.67L205.78 598.67L205.78 548.67zM205.78 748.67L249.08 773.67L249.08 823.67L205.78 848.67L162.48 823.67L162.48 773.67zM205.78 898.67L249.08 923.67L249.08 973.67L205.78 998.67L162.48 973.67L162.48 923.67zM292.38 -1.33L335.69 23.67L335.69 73.67L292.38 98.67L249.08 73.67L249.08 23.67zM335.69 73.67L378.99 98.67L378.99 148.67L335.69 173.67L292.38 148.67L292.38 98.67zM292.38 148.67L335.69 173.67L335.69 223.67L292.38 248.67L249.08 223.67L249.08 173.67zM335.69 373.67L378.99 398.67L378.99 448.67L335.69 473.67L292.38 448.67L292.38 398.67zM292.38 448.67L335.69 473.67L335.69 523.67L292.38 548.67L249.08 523.67L249.08 473.67zM335.69 673.67L378.99 698.67L378.99 748.67L335.69 773.67L292.38 748.67L292.38 698.67zM292.38 898.67L335.69 923.67L335.69 973.67L292.38 998.67L249.08 973.67L249.08 923.67zM508.9 223.67L552.2 248.67L552.2 298.67L508.9 323.67L465.6 298.67L465.6 248.67zM465.6 448.67L508.9 473.67L508.9 523.67L465.6 548.67L422.29 523.67L422.29 473.67zM465.6 898.67L508.9 923.67L508.9 973.67L465.6 998.67L422.29 973.67L422.29 923.67zM552.2 -1.33L595.5 23.67L595.5 73.67L552.2 98.67L508.9 73.67L508.9 23.67zM552.2 448.67L595.5 473.67L595.5 523.67L552.2 548.67L508.9 523.67L508.9 473.67zM595.5 673.67L638.81 698.67L638.81 748.67L595.5 773.67L552.2 748.67L552.2 698.67zM552.2 1048.67L595.5 1073.67L595.5 1123.67L552.2 1148.67L508.9 1123.67L508.9 1073.67zM682.11 673.67L725.41 698.67L725.41 748.67L682.11 773.67L638.81 748.67L638.81 698.67zM638.81 1048.67L682.11 1073.67L682.11 1123.67L638.81 1148.67L595.5 1123.67L595.5 1073.67zM725.41 448.67L768.71 473.67L768.71 523.67L725.41 548.67L682.11 523.67L682.11 473.67zM768.71 523.67L812.02 548.67L812.02 598.67L768.71 623.67L725.41 598.67L725.41 548.67zM725.41 598.67L768.71 623.67L768.71 673.67L725.41 698.67L682.11 673.67L682.11 623.67zM812.02 148.67L855.32 173.67L855.32 223.67L812.02 248.67L768.71 223.67L768.71 173.67zM855.32 823.67L898.62 848.67L898.62 898.67L855.32 923.67L812.02 898.67L812.02 848.67zM941.92 523.67L985.23 548.67L985.23 598.67L941.92 623.67L898.62 598.67L898.62 548.67zM898.62 598.67L941.92 623.67L941.92 673.67L898.62 698.67L855.32 673.67L855.32 623.67zM985.23 298.67L1028.53 323.67L1028.53 373.67L985.23 398.67L941.92 373.67L941.92 323.67zM1028.53 373.67L1071.83 398.67L1071.83 448.67L1028.53 473.67L985.23 448.67L985.23 398.67zM985.23 598.67L1028.53 623.67L1028.53 673.67L985.23 698.67L941.92 673.67L941.92 623.67zM1071.83 148.67L1115.13 173.67L1115.13 223.67L1071.83 248.67L1028.53 223.67L1028.53 173.67zM1115.13 973.67L1158.43 998.67L1158.43 1048.67L1115.13 1073.67L1071.83 1048.67L1071.83 998.67zM1071.83 1048.67L1115.13 1073.67L1115.13 1123.67L1071.83 1148.67L1028.53 1123.67L1028.53 1073.67zM1158.43 148.67L1201.74 173.67L1201.74 223.67L1158.43 248.67L1115.13 223.67L1115.13 173.67zM1201.74 373.67L1245.04 398.67L1245.04 448.67L1201.74 473.67L1158.43 448.67L1158.43 398.67zM1158.43 598.67L1201.74 623.67L1201.74 673.67L1158.43 698.67L1115.13 673.67L1115.13 623.67zM1201.74 823.67L1245.04 848.67L1245.04 898.67L1201.74 923.67L1158.43 898.67L1158.43 848.67zM1245.04 -1.33L1288.34 23.67L1288.34 73.67L1245.04 98.67L1201.74 73.67L1201.74 23.67zM1288.34 373.67L1331.64 398.67L1331.64 448.67L1288.34 473.67L1245.04 448.67L1245.04 398.67zM1245.04 448.67L1288.34 473.67L1288.34 523.67L1245.04 548.67L1201.74 523.67L1201.74 473.67zM1288.34 523.67L1331.64 548.67L1331.64 598.67L1288.34 623.67L1245.04 598.67L1245.04 548.67zM1245.04 748.67L1288.34 773.67L1288.34 823.67L1245.04 848.67L1201.74 823.67L1201.74 773.67zM1288.34 823.67L1331.64 848.67L1331.64 898.67L1288.34 923.67L1245.04 898.67L1245.04 848.67zM1374.95 373.67L1418.25 398.67L1418.25 448.67L1374.95 473.67L1331.64 448.67L1331.64 398.67zM1331.64 598.67L1374.95 623.67L1374.95 673.67L1331.64 698.67L1288.34 673.67L1288.34 623.67zM1374.95 673.67L1418.25 698.67L1418.25 748.67L1374.95 773.67L1331.64 748.67L1331.64 698.67zM1374.95 973.67L1418.25 998.67L1418.25 1048.67L1374.95 1073.67L1331.64 1048.67L1331.64 998.67zM1461.55 73.67L1504.86 98.67L1504.86 148.67L1461.55 173.67L1418.25 148.67L1418.25 98.67zM1461.55 223.67L1504.86 248.67L1504.86 298.67L1461.55 323.67L1418.25 298.67L1418.25 248.67zM1418.25 298.67L1461.55 323.67L1461.55 373.67L1418.25 398.67L1374.95 373.67L1374.95 323.67zM1461.55 373.67L1504.86 398.67L1504.86 448.67L1461.55 473.67L1418.25 448.67L1418.25 398.67zM1418.25 448.67L1461.55 473.67L1461.55 523.67L1418.25 548.67L1374.95 523.67L1374.95 473.67zM1548.16 73.67L1591.46 98.67L1591.46 148.67L1548.16 173.67L1504.86 148.67L1504.86 98.67zM1548.16 223.67L1591.46 248.67L1591.46 298.67L1548.16 323.67L1504.86 298.67L1504.86 248.67zM1591.46 -1.33L1634.76 23.67L1634.76 73.67L1591.46 98.67L1548.16 73.67L1548.16 23.67zM1634.76 523.67L1678.07 548.67L1678.07 598.67L1634.76 623.67L1591.46 598.67L1591.46 548.67zM1678.07 -1.33L1721.37 23.67L1721.37 73.67L1678.07 98.67L1634.76 73.67L1634.76 23.67zM1764.67 -1.33L1807.97 23.67L1807.97 73.67L1764.67 98.67L1721.37 73.67L1721.37 23.67zM1851.28 -1.33L1894.58 23.67L1894.58 73.67L1851.28 98.67L1807.97 73.67L1807.97 23.67zM1894.58 373.67L1937.88 398.67L1937.88 448.67L1894.58 473.67L1851.28 448.67L1851.28 398.67zM1894.58 673.67L1937.88 698.67L1937.88 748.67L1894.58 773.67L1851.28 748.67L1851.28 698.67zM1851.28 748.67L1894.58 773.67L1894.58 823.67L1851.28 848.67L1807.97 823.67L1807.97 773.67zM1894.58 823.67L1937.88 848.67L1937.88 898.67L1894.58 923.67L1851.28 898.67L1851.28 848.67zM1851.28 1048.67L1894.58 1073.67L1894.58 1123.67L1851.28 1148.67L1807.97 1123.67L1807.97 1073.67zM1937.88 -1.33L1981.18 23.67L1981.18 73.67L1937.88 98.67L1894.58 73.67L1894.58 23.67zM1981.18 973.67L2024.49 998.67L2024.49 1048.67L1981.18 1073.67L1937.88 1048.67L1937.88 998.67z" stroke="rgba(6, 80, 156, 0.93)" stroke-width="2"></path></g><defs><mask id="SvgjsMask1018"><rect width="1920" height="1080" fill="#ffffff"></rect></mask><linearGradient x1="10.94%" y1="-19.44%" x2="89.06%" y2="119.44%" gradientUnits="userSpaceOnUse" id="SvgjsLinearGradient1019"><stop stop-color="#0e2a47" offset="0"></stop><stop stop-color="#00459e" offset="1"></stop></linearGradient></defs></svg>