<svg xmlns="http://www.w3.org/2000/svg" version="1.1" xmlns:xlink="http://www.w3.org/1999/xlink" xmlns:svgjs="http://svgjs.com/svgjs" width="1440" height="560" preserveAspectRatio="none" viewBox="0 0 1440 560"><g mask="url(&quot;#SvgjsMask1017&quot;)" fill="none"><rect width="1440" height="560" x="0" y="0" fill="url(#SvgjsLinearGradient1018)"></rect><path d="M209.37 315.09L274.32 352.59L274.32 427.59L209.37 465.09L144.42 427.59L144.42 352.59zM404.23 -22.41L469.19 15.09L469.19 90.09L404.23 127.59L339.28 90.09L339.28 15.09zM599.09 540.09L664.05 577.59L664.05 652.59L599.09 690.09L534.14 652.59L534.14 577.59zM793.95 -22.41L858.91 15.09L858.91 90.09L793.95 127.59L729 90.09L729 15.09zM858.91 315.09L923.86 352.59L923.86 427.59L858.91 465.09L793.95 427.59L793.95 352.59z" stroke="#03305d" stroke-width="2"></path><path d="M201.87 315.09 a7.5 7.5 0 1 0 15 0 a7.5 7.5 0 1 0 -15 0zM266.82 352.59 a7.5 7.5 0 1 0 15 0 a7.5 7.5 0 1 0 -15 0zM266.82 427.59 a7.5 7.5 0 1 0 15 0 a7.5 7.5 0 1 0 -15 0zM201.87 465.09 a7.5 7.5 0 1 0 15 0 a7.5 7.5 0 1 0 -15 0zM136.92 427.59 a7.5 7.5 0 1 0 15 0 a7.5 7.5 0 1 0 -15 0zM136.92 352.59 a7.5 7.5 0 1 0 15 0 a7.5 7.5 0 1 0 -15 0zM396.73 -22.41 a7.5 7.5 0 1 0 15 0 a7.5 7.5 0 1 0 -15 0zM461.69 15.09 a7.5 7.5 0 1 0 15 0 a7.5 7.5 0 1 0 -15 0zM461.69 90.09 a7.5 7.5 0 1 0 15 0 a7.5 7.5 0 1 0 -15 0zM396.73 127.59 a7.5 7.5 0 1 0 15 0 a7.5 7.5 0 1 0 -15 0zM331.78 90.09 a7.5 7.5 0 1 0 15 0 a7.5 7.5 0 1 0 -15 0zM331.78 15.09 a7.5 7.5 0 1 0 15 0 a7.5 7.5 0 1 0 -15 0zM591.59 540.09 a7.5 7.5 0 1 0 15 0 a7.5 7.5 0 1 0 -15 0zM656.55 577.59 a7.5 7.5 0 1 0 15 0 a7.5 7.5 0 1 0 -15 0zM656.55 652.59 a7.5 7.5 0 1 0 15 0 a7.5 7.5 0 1 0 -15 0zM591.59 690.09 a7.5 7.5 0 1 0 15 0 a7.5 7.5 0 1 0 -15 0zM526.64 652.59 a7.5 7.5 0 1 0 15 0 a7.5 7.5 0 1 0 -15 0zM526.64 577.59 a7.5 7.5 0 1 0 15 0 a7.5 7.5 0 1 0 -15 0zM786.45 -22.41 a7.5 7.5 0 1 0 15 0 a7.5 7.5 0 1 0 -15 0zM851.41 15.09 a7.5 7.5 0 1 0 15 0 a7.5 7.5 0 1 0 -15 0zM851.41 90.09 a7.5 7.5 0 1 0 15 0 a7.5 7.5 0 1 0 -15 0zM786.45 127.59 a7.5 7.5 0 1 0 15 0 a7.5 7.5 0 1 0 -15 0zM721.5 90.09 a7.5 7.5 0 1 0 15 0 a7.5 7.5 0 1 0 -15 0zM721.5 15.09 a7.5 7.5 0 1 0 15 0 a7.5 7.5 0 1 0 -15 0zM851.41 315.09 a7.5 7.5 0 1 0 15 0 a7.5 7.5 0 1 0 -15 0zM916.36 352.59 a7.5 7.5 0 1 0 15 0 a7.5 7.5 0 1 0 -15 0zM916.36 427.59 a7.5 7.5 0 1 0 15 0 a7.5 7.5 0 1 0 -15 0zM851.41 465.09 a7.5 7.5 0 1 0 15 0 a7.5 7.5 0 1 0 -15 0zM786.45 427.59 a7.5 7.5 0 1 0 15 0 a7.5 7.5 0 1 0 -15 0zM786.45 352.59 a7.5 7.5 0 1 0 15 0 a7.5 7.5 0 1 0 -15 0z" fill="#03305d"></path><path d="M24.27 126.79L67.57 151.79L67.57 201.79L24.27 226.79L-19.03 201.79L-19.03 151.79zM24.27 276.79L67.57 301.79L67.57 351.79L24.27 376.79L-19.03 351.79L-19.03 301.79zM67.57 351.79L110.88 376.79L110.88 426.79L67.57 451.79L24.27 426.79L24.27 376.79zM154.18 51.79L197.48 76.79L197.48 126.79L154.18 151.79L110.88 126.79L110.88 76.79zM110.88 276.79L154.18 301.79L154.18 351.79L110.88 376.79L67.57 351.79L67.57 301.79zM154.18 351.79L197.48 376.79L197.48 426.79L154.18 451.79L110.88 426.79L110.88 376.79zM110.88 426.79L154.18 451.79L154.18 501.79L110.88 526.79L67.57 501.79L67.57 451.79zM154.18 501.79L197.48 526.79L197.48 576.79L154.18 601.79L110.88 576.79L110.88 526.79zM197.48 126.79L240.78 151.79L240.78 201.79L197.48 226.79L154.18 201.79L154.18 151.79zM240.78 201.79L284.08 226.79L284.08 276.79L240.78 301.79L197.48 276.79L197.48 226.79zM197.48 276.79L240.78 301.79L240.78 351.79L197.48 376.79L154.18 351.79L154.18 301.79zM240.78 351.79L284.08 376.79L284.08 426.79L240.78 451.79L197.48 426.79L197.48 376.79zM197.48 426.79L240.78 451.79L240.78 501.79L197.48 526.79L154.18 501.79L154.18 451.79zM284.08 -23.21L327.39 1.79L327.39 51.79L284.08 76.79L240.78 51.79L240.78 1.79zM327.39 51.79L370.69 76.79L370.69 126.79L327.39 151.79L284.08 126.79L284.08 76.79zM284.08 276.79L327.39 301.79L327.39 351.79L284.08 376.79L240.78 351.79L240.78 301.79zM284.08 426.79L327.39 451.79L327.39 501.79L284.08 526.79L240.78 501.79L240.78 451.79zM327.39 501.79L370.69 526.79L370.69 576.79L327.39 601.79L284.08 576.79L284.08 526.79zM370.69 126.79L413.99 151.79L413.99 201.79L370.69 226.79L327.39 201.79L327.39 151.79zM413.99 201.79L457.3 226.79L457.3 276.79L413.99 301.79L370.69 276.79L370.69 226.79zM370.69 276.79L413.99 301.79L413.99 351.79L370.69 376.79L327.39 351.79L327.39 301.79zM370.69 426.79L413.99 451.79L413.99 501.79L370.69 526.79L327.39 501.79L327.39 451.79zM457.3 -23.21L500.6 1.79L500.6 51.79L457.3 76.79L413.99 51.79L413.99 1.79zM457.3 126.79L500.6 151.79L500.6 201.79L457.3 226.79L413.99 201.79L413.99 151.79zM457.3 276.79L500.6 301.79L500.6 351.79L457.3 376.79L413.99 351.79L413.99 301.79zM500.6 351.79L543.9 376.79L543.9 426.79L500.6 451.79L457.3 426.79L457.3 376.79zM457.3 426.79L500.6 451.79L500.6 501.79L457.3 526.79L413.99 501.79L413.99 451.79zM500.6 501.79L543.9 526.79L543.9 576.79L500.6 601.79L457.3 576.79L457.3 526.79zM543.9 -23.21L587.2 1.79L587.2 51.79L543.9 76.79L500.6 51.79L500.6 1.79zM543.9 126.79L587.2 151.79L587.2 201.79L543.9 226.79L500.6 201.79L500.6 151.79zM587.2 351.79L630.5 376.79L630.5 426.79L587.2 451.79L543.9 426.79L543.9 376.79zM587.2 501.79L630.5 526.79L630.5 576.79L587.2 601.79L543.9 576.79L543.9 526.79zM630.5 -23.21L673.81 1.79L673.81 51.79L630.5 76.79L587.2 51.79L587.2 1.79zM673.81 51.79L717.11 76.79L717.11 126.79L673.81 151.79L630.5 126.79L630.5 76.79zM630.5 126.79L673.81 151.79L673.81 201.79L630.5 226.79L587.2 201.79L587.2 151.79zM630.5 276.79L673.81 301.79L673.81 351.79L630.5 376.79L587.2 351.79L587.2 301.79zM673.81 351.79L717.11 376.79L717.11 426.79L673.81 451.79L630.5 426.79L630.5 376.79zM717.11 -23.21L760.41 1.79L760.41 51.79L717.11 76.79L673.81 51.79L673.81 1.79zM760.41 201.79L803.72 226.79L803.72 276.79L760.41 301.79L717.11 276.79L717.11 226.79zM717.11 276.79L760.41 301.79L760.41 351.79L717.11 376.79L673.81 351.79L673.81 301.79zM847.02 201.79L890.32 226.79L890.32 276.79L847.02 301.79L803.72 276.79L803.72 226.79zM803.72 276.79L847.02 301.79L847.02 351.79L803.72 376.79L760.41 351.79L760.41 301.79zM847.02 501.79L890.32 526.79L890.32 576.79L847.02 601.79L803.72 576.79L803.72 526.79zM933.62 51.79L976.93 76.79L976.93 126.79L933.62 151.79L890.32 126.79L890.32 76.79zM890.32 276.79L933.62 301.79L933.62 351.79L890.32 376.79L847.02 351.79L847.02 301.79zM933.62 351.79L976.93 376.79L976.93 426.79L933.62 451.79L890.32 426.79L890.32 376.79zM976.93 126.79L1020.23 151.79L1020.23 201.79L976.93 226.79L933.62 201.79L933.62 151.79zM976.93 276.79L1020.23 301.79L1020.23 351.79L976.93 376.79L933.62 351.79L933.62 301.79zM976.93 426.79L1020.23 451.79L1020.23 501.79L976.93 526.79L933.62 501.79L933.62 451.79zM1063.53 -23.21L1106.83 1.79L1106.83 51.79L1063.53 76.79L1020.23 51.79L1020.23 1.79zM1106.83 51.79L1150.13 76.79L1150.13 126.79L1106.83 151.79L1063.53 126.79L1063.53 76.79zM1106.83 201.79L1150.13 226.79L1150.13 276.79L1106.83 301.79L1063.53 276.79L1063.53 226.79zM1063.53 276.79L1106.83 301.79L1106.83 351.79L1063.53 376.79L1020.23 351.79L1020.23 301.79zM1106.83 351.79L1150.13 376.79L1150.13 426.79L1106.83 451.79L1063.53 426.79L1063.53 376.79zM1063.53 426.79L1106.83 451.79L1106.83 501.79L1063.53 526.79L1020.23 501.79L1020.23 451.79zM1150.13 -23.21L1193.44 1.79L1193.44 51.79L1150.13 76.79L1106.83 51.79L1106.83 1.79zM1150.13 126.79L1193.44 151.79L1193.44 201.79L1150.13 226.79L1106.83 201.79L1106.83 151.79zM1150.13 426.79L1193.44 451.79L1193.44 501.79L1150.13 526.79L1106.83 501.79L1106.83 451.79zM1236.74 -23.21L1280.04 1.79L1280.04 51.79L1236.74 76.79L1193.44 51.79L1193.44 1.79zM1236.74 126.79L1280.04 151.79L1280.04 201.79L1236.74 226.79L1193.44 201.79L1193.44 151.79zM1236.74 276.79L1280.04 301.79L1280.04 351.79L1236.74 376.79L1193.44 351.79L1193.44 301.79zM1280.04 351.79L1323.35 376.79L1323.35 426.79L1280.04 451.79L1236.74 426.79L1236.74 376.79zM1323.35 -23.21L1366.65 1.79L1366.65 51.79L1323.35 76.79L1280.04 51.79L1280.04 1.79zM1366.65 51.79L1409.95 76.79L1409.95 126.79L1366.65 151.79L1323.35 126.79L1323.35 76.79zM1323.35 126.79L1366.65 151.79L1366.65 201.79L1323.35 226.79L1280.04 201.79L1280.04 151.79zM1323.35 426.79L1366.65 451.79L1366.65 501.79L1323.35 526.79L1280.04 501.79L1280.04 451.79zM1409.95 -23.21L1453.25 1.79L1453.25 51.79L1409.95 76.79L1366.65 51.79L1366.65 1.79zM1453.25 51.79L1496.56 76.79L1496.56 126.79L1453.25 151.79L1409.95 126.79L1409.95 76.79z" stroke="rgba(6, 80, 156, 0.93)" stroke-width="2"></path></g><defs><mask id="SvgjsMask1017"><rect width="1440" height="560" fill="#ffffff"></rect></mask><linearGradient x1="15.28%" y1="-39.29%" x2="84.72%" y2="139.29%" gradientUnits="userSpaceOnUse" id="SvgjsLinearGradient1018"><stop stop-color="#0e2a47" offset="0"></stop><stop stop-color="#00459e" offset="1"></stop></linearGradient></defs></svg>