<svg xmlns="http://www.w3.org/2000/svg" version="1.1" xmlns:xlink="http://www.w3.org/1999/xlink" xmlns:svgjs="http://svgjs.com/svgjs" width="500" height="500" preserveAspectRatio="none" viewBox="0 0 500 500"><g mask="url(&quot;#SvgjsMask1029&quot;)" fill="none"><rect width="500" height="500" x="0" y="0" fill="url(#SvgjsLinearGradient1030)"></rect><path d="M158.15 187.09L223.1 224.59L223.1 299.59L158.15 337.09L93.19 299.59L93.19 224.59zM223.1 299.59L288.06 337.09L288.06 412.09L223.1 449.59L158.15 412.09L158.15 337.09zM288.06 -37.91L353.01 -0.41L353.01 74.59L288.06 112.09L223.1 74.59L223.1 -0.41zM288.06 187.09L353.01 224.59L353.01 299.59L288.06 337.09L223.1 299.59L223.1 224.59zM482.92 74.59L547.87 112.09L547.87 187.09L482.92 224.59L417.96 187.09L417.96 112.09z" stroke="#03305d" stroke-width="2"></path><path d="M150.65 187.09 a7.5 7.5 0 1 0 15 0 a7.5 7.5 0 1 0 -15 0zM215.6 224.59 a7.5 7.5 0 1 0 15 0 a7.5 7.5 0 1 0 -15 0zM215.6 299.59 a7.5 7.5 0 1 0 15 0 a7.5 7.5 0 1 0 -15 0zM150.65 337.09 a7.5 7.5 0 1 0 15 0 a7.5 7.5 0 1 0 -15 0zM85.69 299.59 a7.5 7.5 0 1 0 15 0 a7.5 7.5 0 1 0 -15 0zM85.69 224.59 a7.5 7.5 0 1 0 15 0 a7.5 7.5 0 1 0 -15 0zM280.56 337.09 a7.5 7.5 0 1 0 15 0 a7.5 7.5 0 1 0 -15 0zM280.56 412.09 a7.5 7.5 0 1 0 15 0 a7.5 7.5 0 1 0 -15 0zM215.6 449.59 a7.5 7.5 0 1 0 15 0 a7.5 7.5 0 1 0 -15 0zM150.65 412.09 a7.5 7.5 0 1 0 15 0 a7.5 7.5 0 1 0 -15 0zM280.56 -37.91 a7.5 7.5 0 1 0 15 0 a7.5 7.5 0 1 0 -15 0zM345.51 -0.41 a7.5 7.5 0 1 0 15 0 a7.5 7.5 0 1 0 -15 0zM345.51 74.59 a7.5 7.5 0 1 0 15 0 a7.5 7.5 0 1 0 -15 0zM280.56 112.09 a7.5 7.5 0 1 0 15 0 a7.5 7.5 0 1 0 -15 0zM215.6 74.59 a7.5 7.5 0 1 0 15 0 a7.5 7.5 0 1 0 -15 0zM215.6 -0.41 a7.5 7.5 0 1 0 15 0 a7.5 7.5 0 1 0 -15 0zM280.56 187.09 a7.5 7.5 0 1 0 15 0 a7.5 7.5 0 1 0 -15 0zM345.51 224.59 a7.5 7.5 0 1 0 15 0 a7.5 7.5 0 1 0 -15 0zM345.51 299.59 a7.5 7.5 0 1 0 15 0 a7.5 7.5 0 1 0 -15 0zM475.42 74.59 a7.5 7.5 0 1 0 15 0 a7.5 7.5 0 1 0 -15 0zM540.37 112.09 a7.5 7.5 0 1 0 15 0 a7.5 7.5 0 1 0 -15 0zM540.37 187.09 a7.5 7.5 0 1 0 15 0 a7.5 7.5 0 1 0 -15 0zM475.42 224.59 a7.5 7.5 0 1 0 15 0 a7.5 7.5 0 1 0 -15 0zM410.46 187.09 a7.5 7.5 0 1 0 15 0 a7.5 7.5 0 1 0 -15 0zM410.46 112.09 a7.5 7.5 0 1 0 15 0 a7.5 7.5 0 1 0 -15 0z" fill="#03305d"></path><path d="M76.5 478.69L119.81 503.69L119.81 553.69L76.5 578.69L33.2 553.69L33.2 503.69zM249.71 178.69L293.01 203.69L293.01 253.69L249.71 278.69L206.41 253.69L206.41 203.69zM422.92 28.69L466.23 53.69L466.23 103.69L422.92 128.69L379.62 103.69L379.62 53.69zM379.62 403.69L422.92 428.69L422.92 478.69L379.62 503.69L336.32 478.69L336.32 428.69zM509.53 178.69L552.83 203.69L552.83 253.69L509.53 278.69L466.23 253.69L466.23 203.69z" stroke="rgba(6, 80, 156, 0.93)" stroke-width="2"></path></g><defs><mask id="SvgjsMask1029"><rect width="500" height="500" fill="#ffffff"></rect></mask><linearGradient x1="0%" y1="0%" x2="100%" y2="100%" gradientUnits="userSpaceOnUse" id="SvgjsLinearGradient1030"><stop stop-color="#0e2a47" offset="0"></stop><stop stop-color="#00459e" offset="1"></stop></linearGradient></defs></svg>