<svg xmlns="http://www.w3.org/2000/svg" version="1.1" xmlns:xlink="http://www.w3.org/1999/xlink" xmlns:svgjs="http://svgjs.com/svgjs" width="1440" height="600" preserveAspectRatio="none" viewBox="0 0 1440 600"><g mask="url(&quot;#SvgjsMask1340&quot;)" fill="none"><rect width="1440" height="600" x="0" y="0" fill="url(#SvgjsLinearGradient1341)"></rect><path d="M83 600L683 0L1277 0L677 600z" fill="url(#SvgjsLinearGradient1342)"></path><path d="M476.20000000000005 600L1076.2 0L1191.7 0L591.7 600z" fill="url(#SvgjsLinearGradient1342)"></path><path d="M1382 600L782 0L404 0L1004 600z" fill="url(#SvgjsLinearGradient1343)"></path><path d="M918.8 600L318.79999999999995 0L245.29999999999995 0L845.3 600z" fill="url(#SvgjsLinearGradient1343)"></path><path d="M936.773892713187 600L1440 96.77389271318708L1440 600z" fill="url(#SvgjsLinearGradient1342)"></path><path d="M0 600L503.2261072868129 600L 0 96.77389271318708z" fill="url(#SvgjsLinearGradient1343)"></path></g><defs><mask id="SvgjsMask1340"><rect width="1440" height="600" fill="#ffffff"></rect></mask><linearGradient x1="14.58%" y1="-35%" x2="85.42%" y2="135%" gradientUnits="userSpaceOnUse" id="SvgjsLinearGradient1341"><stop stop-color="#0e2a47" offset="0"></stop><stop stop-color="rgba(0, 105, 241, 1)" offset="1"></stop></linearGradient><linearGradient x1="0%" y1="100%" x2="100%" y2="0%" id="SvgjsLinearGradient1342"><stop stop-color="rgba(0, 105, 241, 1)" offset="0"></stop><stop stop-opacity="0" stop-color="rgba(0, 105, 241, 1)" offset="0.66"></stop></linearGradient><linearGradient x1="100%" y1="100%" x2="0%" y2="0%" id="SvgjsLinearGradient1343"><stop stop-color="rgba(0, 105, 241, 1)" offset="0"></stop><stop stop-opacity="0" stop-color="rgba(0, 105, 241, 1)" offset="0.66"></stop></linearGradient></defs></svg>