<svg xmlns="http://www.w3.org/2000/svg" version="1.1" xmlns:xlink="http://www.w3.org/1999/xlink" xmlns:svgjs="http://svgjs.com/svgjs" width="1440" height="600" preserveAspectRatio="none" viewBox="0 0 1440 600"><g mask="url(&quot;#SvgjsMask1312&quot;)" fill="none"><rect width="1440" height="600" x="0" y="0" fill="url(#SvgjsLinearGradient1313)"></rect><path d="M15 600L615 0L1080 0L480 600z" fill="url(#SvgjsLinearGradient1314)"></path><path d="M545.2 600L1145.2 0L1343.2 0L743.2 600z" fill="url(#SvgjsLinearGradient1314)"></path><path d="M1420 600L820 0L137.5 0L737.5 600z" fill="url(#SvgjsLinearGradient1315)"></path><path d="M869.8 600L269.79999999999995 0L-265.70000000000005 0L334.29999999999995 600z" fill="url(#SvgjsLinearGradient1315)"></path><path d="M1030.628632202605 600L1440 190.62863220260516L1440 600z" fill="url(#SvgjsLinearGradient1314)"></path><path d="M0 600L409.37136779739484 600L 0 190.62863220260516z" fill="url(#SvgjsLinearGradient1315)"></path></g><defs><mask id="SvgjsMask1312"><rect width="1440" height="600" fill="#ffffff"></rect></mask><linearGradient x1="14.58%" y1="-35%" x2="85.42%" y2="135%" gradientUnits="userSpaceOnUse" id="SvgjsLinearGradient1313"><stop stop-color="#0e2a47" offset="0"></stop><stop stop-color="rgba(0, 105, 241, 1)" offset="1"></stop></linearGradient><linearGradient x1="0%" y1="100%" x2="100%" y2="0%" id="SvgjsLinearGradient1314"><stop stop-color="rgba(0, 105, 241, 1)" offset="0"></stop><stop stop-opacity="0" stop-color="rgba(0, 105, 241, 1)" offset="0.66"></stop></linearGradient><linearGradient x1="100%" y1="100%" x2="0%" y2="0%" id="SvgjsLinearGradient1315"><stop stop-color="rgba(0, 105, 241, 1)" offset="0"></stop><stop stop-opacity="0" stop-color="rgba(0, 105, 241, 1)" offset="0.66"></stop></linearGradient></defs></svg>